PathFileType	3	(X/Y/Z)	D:\Vicon Database\Healthy Subjects\S0040\Jan. 30, 2020\Force Plate Walk 1.trc
DataRate	CameraRate	NumFrames	NumMarkers	Units	OrigDataRate	OrigDataStartFrame	OrigNumFrames
100.0	100.0	4	53	mm	100.0	544	322	
Frame#	Time	right_foot_cluster2			right_foot_cluster3			sternum_cluster1			sternum_cluster2			sternum_cluster3			left_asis			right_asis			left_psis			right_psis			sacrum_cluster1			sacrum_cluster2			sacrum_cluster3			left_lat_femoral_epicondyle			left_anterior_thigh15			left_anterior_thigh25			left_anterior_thigh50			left_lateral_thigh25			left_lateral_thigh50			left_thigh_cluster1			left_thigh_cluster2			left_thigh_cluster3			left_fibular_head			left_tibial_tuberosity			left_anterior_shank30			left_lateral_malleolus			left_shank_cluster1			left_shank_cluster2			left_shank_cluster3			left_heel			left_metatarsal2			left_foot_cluster1			left_foot_cluster2			left_foot_cluster3			right_lat_femoral_epicondyle			right_anterior_thigh15			right_anterior_thigh25			right_anterior_thigh50			right_lateral_thigh25			right_lateral_thigh50			right_thigh_cluster1			right_thigh_cluster2			right_thigh_cluster3			right_fibular_head			right_tibial_tuberosity			right_lateral_distal_shank			right_anterior_shank30			right_lateral_malleolus			right_shank_cluster1			right_shank_cluster2			right_shank_cluster3			right_heel			right_metatarsal2			right_foot_cluster1			
		X1	Y1	Z1	X2	Y2	Z2	X3	Y3	Z3	X4	Y4	Z4	X5	Y5	Z5	X6	Y6	Z6	X7	Y7	Z7	X8	Y8	Z8	X9	Y9	Z9	X10	Y10	Z10	X11	Y11	Z11	X12	Y12	Z12	X13	Y13	Z13	X14	Y14	Z14	X15	Y15	Z15	X16	Y16	Z16	X17	Y17	Z17	X18	Y18	Z18	X19	Y19	Z19	X20	Y20	Z20	X21	Y21	Z21	X22	Y22	Z22	X23	Y23	Z23	X24	Y24	Z24	X25	Y25	Z25	X26	Y26	Z26	X27	Y27	Z27	X28	Y28	Z28	X29	Y29	Z29	X30	Y30	Z30	X31	Y31	Z31	X32	Y32	Z32	X33	Y33	Z33	X34	Y34	Z34	X35	Y35	Z35	X36	Y36	Z36	X37	Y37	Z37	X38	Y38	Z38	X39	Y39	Z39	X40	Y40	Z40	X41	Y41	Z41	X42	Y42	Z42	X43	Y43	Z43	X44	Y44	Z44	X45	Y45	Z45	X46	Y46	Z46	X47	Y47	Z47	X48	Y48	Z48	X49	Y49	Z49	X50	Y50	Z50	X51	Y51	Z51	X52	Y52	Z52	X53	Y53	Z53	
544	5.43	639.57135	98.137627	-156.84361	639.08539	100.8792	-194.0157	380.37903	1427.9539	-119.52537	370.99927	1399.6785	-109.91589	366.68939	1402.9032	-147.47449	412.93869	1057.2089	-7.7352147	403.90106	1053.5181	-255.29259	575.80609	1072.3506	-56.167046	572.05286	1076.8154	-174.05873	581.51355	1131.9572	-121.67787	587.80231	1107.3241	-134.13046	592.36951	1101.3766	-95.255898	287.9743	562.37213	19.630165	229.35756	669.71509	-24.459517	254.71613	754.39606	-14.375669	319.94318	874.49799	-4.083148	351.93951	700.34192	44.712784	409.93381	838.56366	69.482643	392.3363	794.37677	75.387703	383.12686	765.90894	72.507095	353.49432	788.90973	77.070984	259.16214	489.60272	26.692673	201.49522	494.06006	-26.049236	164.72034	245.76753	-36.978519	181.39366	118.01189	-8.9736814	188.67001	441.9711	-54.212147	178.65648	415.94012	-45.670559	191.74048	412.83664	-81.841393	242.54765	65.708443	-52.331333	32.554153	124.81219	-38.512665	101.71408	156.37166	-31.701136	75.009903	145.29393	-21.80055	71.354294	154.51196	-58.861164	606.53815	535.00671	-248.38255	500.39124	592.54767	-189.3533	451.98621	665.11609	-190.39058	404.19205	790.47827	-210.94261	546.87524	683.2511	-278.78497	499.24991	820.12195	-313.5621	520.85071	772.05804	-316.80338	517.7981	744.61896	-309.7756	556.36401	753.7951	-307.68857	637.18762	473.25705	-249.09505	589.63812	451.04929	-201.87595	720.14972	215.11696	-224.90799	670.32257	218.16298	-179.5856	749.15057	113.3698	-205.84381	615.73877	393.87689	-145.75189	627.68439	368.34683	-137.88785				830.27222	88.062889	-172.07352	611.84845	60.784222	-167.00952	661.37207	115.0583	-165.59233
545	5.44	637.85938	98.132111	-156.87129	637.41516	100.79855	-194.17934	365.03412	1425.1344	-119.35302	355.69766	1396.8441	-109.76955	351.3988	1400.0948	-147.31226	398.01849	1054.774	-7.2386765	389.24652	1050.9055	-254.95107	561.0257	1069.6589	-55.658772	557.31384	1074.4407	-173.31075	567.1051	1129.4399	-121.086	573.18835	1104.5311	-133.62973	577.54156	1098.4204	-94.7771	274.75107	558.61511	18.729982	217.65576	664.49268	-24.970699	241.85756	748.89899	-13.662275	305.12125	870.33746	-2.7989831	340.50259	695.87433	44.613895	396.3591	835.05676	69.917435	379.73077	790.7041	75.832756	370.94485	762.02344	73.174179	341.0921	784.58942	77.627609	242.1573	487.34286	25.588135	185.62314	493.55069	-28.630709	138.07773	247.48497	-37.458862	147.95024	119.07942	-8.6650248	171.00513	442.32526	-56.096935	159.11378	417.15076	-47.44738	173.27034	412.7359	-83.533485	207.00053	63.373737	-50.664791	0.20204198	133.53925	-40.516632	70.877251	161.37289	-32.860867	43.434971	151.85144	-23.293741	40.882042	160.94202	-60.532227	597.92834	534.98358	-248.13957	490.5712	591.07678	-188.90671	440.26132	662.94678	-190.23456	391.59766	787.40405	-211.43236	536.11334	682.2948	-278.16809	486.00522	818.46399	-313.5231	510.13315	770.98267	-315.7121	507.80731	743.32867	-308.62772	544.36981	752.79425	-307.17892	631.04724	474.27408	-248.0089	582.19171	450.82962	-201.61363	716.39478	217.03682	-224.50513	667.28473	219.14185	-179.95735	747.08087	115.34628	-205.74995	609.13416	393.91501	-145.53871	621.479	368.57547	-137.78503				828.67261	91.721626	-172.25761	610.95343	60.202656	-167.00742	659.31592	115.38625	-165.69537
546	5.45	635.95819	98.110031	-157.02597	635.35913	100.76152	-194.33363	349.634	1422.2559	-119.10576	340.31311	1393.9849	-109.51389	336.11786	1397.1713	-147.05917	382.88171	1052.318	-6.6967826	374.37668	1048.3561	-254.61784	546.02411	1066.7955	-55.102535	542.5285	1071.8309	-172.71339	552.401	1126.5258	-120.48232	558.40332	1101.8033	-133.00745	562.73029	1095.7025	-94.096939	261.62161	554.73627	17.646406	205.79779	659.22742	-25.65202	228.89445	743.25293	-12.958012	290.09183	866.09991	-1.2941211	328.78696	691.38672	44.050884	382.47318	831.58765	70.545204	366.6752	786.80981	76.617607	358.22775	757.92499	73.895744	328.2659	780.11182	78.801323	225.29677	485.38968	24.674799	169.8371	493.03348	-30.60462	113.31383	249.19832	-37.924065	117.60953	120.55449	-8.6700792	153.70274	442.49295	-57.704128	140.86275	417.75815	-49.154175	155.24083	412.69391	-84.939278	174.29001	61.293316	-49.421982	-28.807854	141.77563	-42.494606	43.095398	166.07097	-34.400291	15.039691	158.13011	-25.017782	13.493559	166.71637	-62.423313	588.2962	535.01202	-247.87547	479.82483	589.39313	-188.57019	426.82535	660.56561	-190.43472	378.12033	784.66846	-211.61205	524.44452	681.29694	-277.69925	473.21982	816.7796	-313.0947	497.55063	769.70038	-315.3786	493.07007	741.99976	-309.54562	532.22772	751.95355	-306.38803	622.6037	474.71863	-247.71576	573.91656	450.32013	-201.39566	712.72156	219.04451	-224.66795	663.33832	220.07813	-179.98941	744.90967	117.45609	-205.83255	601.8797	393.66742	-145.31308	614.70032	368.59705	-137.62061				826.651	95.118591	-172.3268	609.94019	59.652164	-167.00519	657.07928	115.80154	-165.94109
547	5.46	633.78101	98.111244	-157.21536	633.26788	100.61041	-194.55769	334.1705	1419.3853	-118.85058	324.88541	1391.0939	-109.24476	320.75732	1394.2562	-146.81081	367.41339	1049.908	-6.13974	359.2692	1045.8275	-254.39006	530.90686	1064.2184	-54.349751	527.33154	1068.9197	-172.07004	537.36829	1123.8845	-119.7731	543.30823	1098.9908	-132.2981	547.61786	1092.9952	-93.351135	247.7258	551.22314	16.710619	193.3452	654.66589	-26.372068	215.49559	737.95178	-12.417795	274.64078	862.12903	0.26017958	315.17258	687.59845	43.744305	367.79437	828.45123	71.337814	352.54044	783.08313	77.462608	344.10846	754.07605	74.352943	314.26105	775.8009	80.115242	209.13223	483.30347	23.782946	154.39235	492.43488	-32.603111	90.183617	250.61873	-38.477467	90.514488	121.91093	-9.2517061	136.84573	442.39639	-59.149937	123.15686	418.04742	-50.649338	137.59299	412.51398	-86.172104	144.78021	59.411354	-48.92482	-54.640408	148.95081	-44.529263	18.234301	170.28523	-36.333485	-10.174119	163.71175	-27.042959	-11.342009	172.58287	-64.171783	577.54346	534.7511	-247.54851	468.19989	587.5376	-188.50436	415.99872	658.04858	-190.25652	364.11847	781.95007	-211.8268	512.17096	680.18073	-277.37732	459.35687	814.88586	-312.94299	484.45364	768.23419	-315.03989	479.51965	740.69769	-309.63568	519.05542	750.79474	-305.99777	613.16779	474.99109	-247.35612	564.17499	449.73386	-201.72169	708.03571	221.01038	-224.51146	658.98816	220.99931	-180.04434	742.46674	119.92037	-205.92905	593.83716	393.24033	-145.14055	607.14093	368.47906	-137.50047				824.35223	98.865356	-172.52148	608.79382	59.099724	-167.07771	654.6001	116.25215	-166.13225
